<?xml version="1.0" encoding="UTF-8" standalone="no"?>
<!-- Creator: CorelDRAW -->

<svg
   xml:space="preserve"
   width="400"
   height="400"
   shape-rendering="geometricPrecision"
   text-rendering="geometricPrecision"
   image-rendering="optimizeQuality"
   fill-rule="evenodd"
   clip-rule="evenodd"
   viewBox="0 0 105.83333 105.83333"
   version="1.1"
   id="svg319"
   sodipodi:docname="arrow_dark.svg"
   inkscape:version="1.2 (dc2aeda, 2022-05-15)"
   xmlns:inkscape="http://www.inkscape.org/namespaces/inkscape"
   xmlns:sodipodi="http://sodipodi.sourceforge.net/DTD/sodipodi-0.dtd"
   xmlns="http://www.w3.org/2000/svg"
   xmlns:svg="http://www.w3.org/2000/svg"><defs
   id="defs323" /><sodipodi:namedview
   id="namedview321"
   pagecolor="#ffffff"
   bordercolor="#666666"
   borderopacity="1.0"
   inkscape:showpageshadow="2"
   inkscape:pageopacity="0.0"
   inkscape:pagecheckerboard="0"
   inkscape:deskcolor="#d1d1d1"
   inkscape:document-units="mm"
   showgrid="false"
   inkscape:zoom="0.96070032"
   inkscape:cx="216.50872"
   inkscape:cy="234.20415"
   inkscape:window-width="1920"
   inkscape:window-height="1043"
   inkscape:window-x="0"
   inkscape:window-y="0"
   inkscape:window-maximized="1"
   inkscape:current-layer="Ebene_x0020_1"
   inkscape:lockguides="true" />
 <g
   id="Ebene_x0020_1"
   inkscape:label="Ebene 1"
   inkscape:groupmode="layer">
  <metadata
   id="CorelCorpID_0Corel-Layer" />
  
 <g
   id="g4083"
   style="fill:#dfdfd7;fill-opacity:1;stroke:none"
   transform="translate(0.95487867,-1.3358245)"><path
     d="M 90.373959,27.958934 59.439957,4.7596671 c -2.547007,-1.909572 -6.188372,-0.08419 -6.188372,3.087973 V 15.582381 H 15.877299 c -2.139361,0 -3.871062,1.729278 -3.871062,3.871062 V 42.65271 c 0,2.134403 1.731701,3.86368 3.871062,3.86368 h 37.374286 v 7.732318 c 0,3.199077 3.656213,4.990177 6.188372,3.095345 L 90.373959,34.139837 c 2.05784,-1.541516 2.05784,-4.636861 0,-6.180903 z M 60.986327,46.518915 v -3.863679 c 0,-2.134412 -1.731707,-3.863689 -3.863597,-3.863689 H 19.740978 V 23.322073 h 37.379235 c 2.134407,0 3.863683,-1.729278 3.863683,-3.86368 v -3.871062 l 20.622673,15.469483 z"
     fill-rule="evenodd"
     clip-rule="evenodd"
     id="path3550"
     style="fill:#dfdfd7;fill-opacity:1;stroke:none;stroke-width:2.47038" /><path
     d="m 88.055149,61.988385 h -37.38166 v -7.734729 c 0,-3.181905 -3.646316,-5.00007 -6.183327,-3.095353 l -30.93905,23.204212 c -1.015285,0.76378 -1.534042,1.90706 -1.543941,3.05829 v 0.0657 c 0.0093,1.14872 0.528425,2.29248 1.543941,3.05829 l 30.93905,23.199365 c 2.532062,1.90462 6.183327,0.10361 6.183327,-3.08797 v -7.735075 h 37.37924 c 2.13441,0 3.86368,-1.73179 3.86368,-3.87114 v -23.1993 c 0.002,-2.13683 -1.72927,-3.8661 -3.86126,-3.8661 z m -3.86611,23.19684 h -37.37923 c -2.139352,0 -3.868629,1.73172 -3.868629,3.8636 v 3.87115 L 22.318511,77.450495 42.94118,61.985875 v 3.86368 c 0,2.13935 1.729277,3.87106 3.868629,3.87106 h 37.37923 z"
     fill-rule="evenodd"
     clip-rule="evenodd"
     id="path3552"
     style="fill:#dfdfd7;fill-opacity:1;stroke:none;stroke-width:2.47038" /></g></g>
</svg>
