<?xml version="1.0" encoding="UTF-8" standalone="no"?>
<!-- Creator: CorelDRAW -->

<svg
   xml:space="preserve"
   width="400"
   height="400"
   shape-rendering="geometricPrecision"
   text-rendering="geometricPrecision"
   image-rendering="optimizeQuality"
   fill-rule="evenodd"
   clip-rule="evenodd"
   viewBox="0 0 105.83333 105.83333"
   version="1.1"
   id="svg319"
   sodipodi:docname="hammer_light.svg"
   inkscape:version="1.2 (dc2aeda, 2022-05-15)"
   xmlns:inkscape="http://www.inkscape.org/namespaces/inkscape"
   xmlns:sodipodi="http://sodipodi.sourceforge.net/DTD/sodipodi-0.dtd"
   xmlns="http://www.w3.org/2000/svg"
   xmlns:svg="http://www.w3.org/2000/svg"><defs
   id="defs323" /><sodipodi:namedview
   id="namedview321"
   pagecolor="#ffffff"
   bordercolor="#666666"
   borderopacity="1.0"
   inkscape:showpageshadow="2"
   inkscape:pageopacity="0.0"
   inkscape:pagecheckerboard="0"
   inkscape:deskcolor="#d1d1d1"
   inkscape:document-units="mm"
   showgrid="false"
   inkscape:zoom="2.7172708"
   inkscape:cx="188.79237"
   inkscape:cy="137.6381"
   inkscape:window-width="2560"
   inkscape:window-height="1371"
   inkscape:window-x="0"
   inkscape:window-y="0"
   inkscape:window-maximized="1"
   inkscape:current-layer="Ebene_x0020_1" />
 <g
   id="Ebene_x0020_1"
   inkscape:label="Ebene 1"
   inkscape:groupmode="layer">
  <metadata
   id="CorelCorpID_0Corel-Layer" />
  <path
   fill="#000000"
   d="m 87.75937,26.237707 5.196994,5.19689 10.231136,20.519324 -20.519326,-10.231134 -5.014497,-5.01429 -20.059238,20.78382 32.765507,31.654418 c 0.800137,0.772908 0.850126,2.037705 0.113489,2.871307 -1.418402,1.605262 -2.936989,3.12385 -4.542148,4.542147 -0.833602,0.736638 -2.098398,0.686752 -2.871306,-0.113385 L 51.513439,63.792916 19.997867,96.445453 c -0.772804,0.800657 -2.038016,0.850958 -2.87193,0.114112 -1.604743,-1.418089 -3.123019,-2.936053 -4.5409,-4.540796 -0.736846,-0.83381 -0.686649,-2.09923 0.114112,-2.872034 L 45.459979,57.52682 23.761183,35.065405 c -3.912244,4.399247 -7.220981,9.349829 -9.807526,14.722357 L 2.645835,39.949162 C 9.8166183,26.77075 20.664769,15.931953 33.830086,8.7519203 l 9.833508,11.3062627 c -5.360784,2.581453 -10.297752,5.88489 -14.685255,9.789338 L 51.547839,51.650973 72.436001,31.490822 60.621845,19.676458 70.910035,9.3882683 82.906688,21.385128 l 1.49406,-1.442201 4.801862,4.799368 z"
   id="path316"
   style="stroke:none;stroke-width:1.03927;fill:#3c3c43;fill-opacity:1" />
 </g>
</svg>
