<?xml version="1.0" encoding="UTF-8" standalone="no"?>
<!-- Creator: CorelDRAW -->

<svg
   xml:space="preserve"
   width="400"
   height="400"
   shape-rendering="geometricPrecision"
   text-rendering="geometricPrecision"
   image-rendering="optimizeQuality"
   fill-rule="evenodd"
   clip-rule="evenodd"
   viewBox="0 0 105.83333 105.83333"
   version="1.1"
   id="svg319"
   sodipodi:docname="layer_light.svg"
   inkscape:version="1.2 (dc2aeda, 2022-05-15)"
   xmlns:inkscape="http://www.inkscape.org/namespaces/inkscape"
   xmlns:sodipodi="http://sodipodi.sourceforge.net/DTD/sodipodi-0.dtd"
   xmlns="http://www.w3.org/2000/svg"
   xmlns:svg="http://www.w3.org/2000/svg"><defs
   id="defs323" /><sodipodi:namedview
   id="namedview321"
   pagecolor="#ffffff"
   bordercolor="#666666"
   borderopacity="1.0"
   inkscape:showpageshadow="2"
   inkscape:pageopacity="0.0"
   inkscape:pagecheckerboard="0"
   inkscape:deskcolor="#d1d1d1"
   inkscape:document-units="mm"
   showgrid="false"
   inkscape:zoom="0.96070032"
   inkscape:cx="156.65655"
   inkscape:cy="325.28354"
   inkscape:window-width="1717"
   inkscape:window-height="1288"
   inkscape:window-x="26"
   inkscape:window-y="23"
   inkscape:window-maximized="0"
   inkscape:current-layer="Ebene_x0020_1" />
 <g
   id="Ebene_x0020_1"
   inkscape:label="Ebene 1"
   inkscape:groupmode="layer">
  <metadata
   id="CorelCorpID_0Corel-Layer" />
  
 <path
   fill="currentColor"
   d="M 5.0832584,31.713629 50.82534,52.463791 c 1.335306,0.606777 2.84538,0.606777 4.180688,0 L 100.74811,31.713629 c 3.2499,-1.47472 3.2499,-6.385873 0,-7.860594 L 55.007991,3.1009083 a 5.0284088,5.0283848 0 0 0 -4.180685,0 L 5.0832584,23.851071 c -3.2499,1.474721 -3.2499,6.387838 0,7.862558 z M 100.75007,49.04896 89.343028,43.878602 57.602019,58.266453 c -1.484547,0.673542 -3.061385,1.015222 -4.685352,1.015222 -1.62397,0 -3.198844,-0.34168 -4.685354,-1.015222 L 16.492269,43.878602 5.0832584,49.04896 c -3.2499,1.472755 -3.2499,6.381946 0,7.854704 L 50.82534,77.638112 c 1.335306,0.604814 2.84538,0.604814 4.180688,0 L 100.75007,56.903664 c 3.24991,-1.472758 3.24991,-6.381949 0,-7.854704 z m 0,25.095779 -11.36384,-5.15072 -31.784211,14.407488 c -1.484547,0.67354 -3.061385,1.015215 -4.685352,1.015215 -1.62397,0 -3.198844,-0.341675 -4.685354,-1.015215 L 16.449068,68.994019 5.0832584,74.144739 c -3.2499,1.472753 -3.2499,6.381949 0,7.854699 L 50.82534,102.73389 c 1.335306,0.60481 2.84538,0.60481 4.180688,0 L 100.75007,81.999438 c 3.24991,-1.47275 3.24991,-6.381946 0,-7.854699 z"
   id="path1892"
   style="fill:#3c3c43;fill-opacity:1;stroke-width:0.196367" /></g>
</svg>
