<?xml version="1.0" encoding="UTF-8" standalone="no"?>
<!-- Creator: CorelDRAW -->

<svg
   xml:space="preserve"
   width="400"
   height="400"
   shape-rendering="geometricPrecision"
   text-rendering="geometricPrecision"
   image-rendering="optimizeQuality"
   fill-rule="evenodd"
   clip-rule="evenodd"
   viewBox="0 0 105.83333 105.83333"
   version="1.1"
   id="svg319"
   sodipodi:docname="lock_light.svg"
   inkscape:version="1.2 (dc2aeda, 2022-05-15)"
   xmlns:inkscape="http://www.inkscape.org/namespaces/inkscape"
   xmlns:sodipodi="http://sodipodi.sourceforge.net/DTD/sodipodi-0.dtd"
   xmlns="http://www.w3.org/2000/svg"
   xmlns:svg="http://www.w3.org/2000/svg"><defs
   id="defs323" /><sodipodi:namedview
   id="namedview321"
   pagecolor="#ffffff"
   bordercolor="#666666"
   borderopacity="1.0"
   inkscape:showpageshadow="2"
   inkscape:pageopacity="0.0"
   inkscape:pagecheckerboard="0"
   inkscape:deskcolor="#d1d1d1"
   inkscape:document-units="mm"
   showgrid="false"
   inkscape:zoom="0.96070032"
   inkscape:cx="-476.73555"
   inkscape:cy="408.03567"
   inkscape:window-width="2560"
   inkscape:window-height="1371"
   inkscape:window-x="0"
   inkscape:window-y="0"
   inkscape:window-maximized="1"
   inkscape:current-layer="Ebene_x0020_1" />
 <g
   id="Ebene_x0020_1"
   inkscape:label="Ebene 1"
   inkscape:groupmode="layer">
  <metadata
   id="CorelCorpID_0Corel-Layer" />
  
 <path
   d="m 79.909811,49.201211 h 9.396333 c 1.260922,0 2.243632,1.121814 2.243632,2.382737 v 49.359912 c 0,1.26092 -0.98271,2.24364 -2.243632,2.24364 H 16.52719 c -1.260922,0 -2.243633,-0.98272 -2.243633,-2.24364 V 51.583948 c 0,-1.260923 0.982711,-2.382737 2.243633,-2.382737 H 68.130741 V 27.325792 c 0,-7.1527 -5.891782,-13.183585 -13.183587,-13.183585 h -4.34816 c -7.1527,0 -13.039992,6.030885 -13.039992,13.183585 v 7.216185 H 25.640825 v -8.338001 c 0,-12.900887 8.274517,-23.5581417 21.0363,-23.5581417 h 12.061767 c 12.900888,0 21.175406,10.6572547 21.175406,23.5581417 V 49.201211 Z M 46.255321,88.886584 H 59.438906 L 56.74173,74.724774 c 2.243633,-1.121815 3.258084,-3.504552 3.258084,-6.169988 0,-4.065463 -3.226342,-7.152701 -7.1527,-7.152701 -3.926356,0 -7.013597,3.087238 -7.013597,7.152701 0,2.665436 1.014455,5.048173 3.258087,6.169988 z"
   id="path1505"
   style="fill:#3c3c43;fill-opacity:1;stroke:none;stroke-width:4.48725"
   sodipodi:nodetypes="csssssssscssssccsssscccccssscc" /></g>
</svg>
