<?xml version="1.0" encoding="UTF-8" standalone="no"?>
<!-- Created with Inkscape (http://www.inkscape.org/) -->

<svg
   width="115mm"
   height="115mm"
   viewBox="0 0 115 115"
   version="1.1"
   id="svg5"
   inkscape:version="1.1.2 (0a00cf5339, 2022-02-04)"
   sodipodi:docname="privacy-light.svg"
   xmlns:inkscape="http://www.inkscape.org/namespaces/inkscape"
   xmlns:sodipodi="http://sodipodi.sourceforge.net/DTD/sodipodi-0.dtd"
   xmlns="http://www.w3.org/2000/svg"
   xmlns:svg="http://www.w3.org/2000/svg">
  <sodipodi:namedview
     id="namedview7"
     pagecolor="#ffffff"
     bordercolor="#666666"
     borderopacity="1.0"
     inkscape:pageshadow="2"
     inkscape:pageopacity="0.0"
     inkscape:pagecheckerboard="0"
     inkscape:document-units="mm"
     showgrid="false"
     fit-margin-top="5"
     fit-margin-left="5"
     fit-margin-right="5"
     fit-margin-bottom="5"
     inkscape:zoom="0.67434788"
     inkscape:cx="2.9658283"
     inkscape:cy="401.12827"
     inkscape:window-width="1920"
     inkscape:window-height="1018"
     inkscape:window-x="0"
     inkscape:window-y="28"
     inkscape:window-maximized="1"
     inkscape:current-layer="layer1" />
  <defs
     id="defs2" />
  <g
     inkscape:label="Calque 1"
     inkscape:groupmode="layer"
     id="layer1"
     transform="translate(-87.937416,-89.592599)">
    <g
       style="overflow:visible;fill:#3c3c43;stroke-width:0;fill-opacity:1"
       id="g833"
       transform="matrix(5.2499966,0,0,5.2499967,82.43749,84.092606)">
      <path
         fill="currentColor"
         d="m 12,2 c 5.523,0 10,4.477 10,10 0,5.523 -4.477,10 -10,10 A 9.956,9.956 0 0 1 7.292,20.825 L 2,22 3.176,16.71 A 9.956,9.956 0 0 1 2,12 C 2,6.477 6.477,2 12,2 Z m 0,2 a 8,8 0 0 0 -8,8 c 0,1.335 0.326,2.618 0.94,3.766 l 0.35,0.654 -0.656,2.946 2.948,-0.654 0.653,0.349 A 7.955,7.955 0 0 0 12,20 8,8 0 1 0 12,4 Z m 0,3 a 3,3 0 0 1 3,3 v 1 h 1 v 5 H 8 v -5 h 1 v -1 a 3,3 0 0 1 3,-3 z m 2,6 h -4 v 1 h 4 z M 12,9 c -0.552,0 -1,0.45 -1,1 v 1 h 2 V 10 A 1,1 0 0 0 12,9 Z"
         id="path824"
         style="fill:#3c3c43;fill-opacity:1" />
    </g>
  </g>
</svg>
