<?xml version="1.0" encoding="UTF-8" standalone="no"?>
<!-- Creator: CorelDRAW -->

<svg
   xml:space="preserve"
   width="400"
   height="400"
   shape-rendering="geometricPrecision"
   text-rendering="geometricPrecision"
   image-rendering="optimizeQuality"
   fill-rule="evenodd"
   clip-rule="evenodd"
   viewBox="0 0 105.83333 105.83333"
   version="1.1"
   id="svg319"
   sodipodi:docname="snap_light.svg"
   inkscape:version="1.2 (dc2aeda, 2022-05-15)"
   xmlns:inkscape="http://www.inkscape.org/namespaces/inkscape"
   xmlns:sodipodi="http://sodipodi.sourceforge.net/DTD/sodipodi-0.dtd"
   xmlns="http://www.w3.org/2000/svg"
   xmlns:svg="http://www.w3.org/2000/svg"><defs
   id="defs323" /><sodipodi:namedview
   id="namedview321"
   pagecolor="#ffffff"
   bordercolor="#666666"
   borderopacity="1.0"
   inkscape:showpageshadow="2"
   inkscape:pageopacity="0.0"
   inkscape:pagecheckerboard="0"
   inkscape:deskcolor="#d1d1d1"
   inkscape:document-units="mm"
   showgrid="false"
   inkscape:zoom="0.96070032"
   inkscape:cx="216.50872"
   inkscape:cy="234.20415"
   inkscape:window-width="1920"
   inkscape:window-height="1043"
   inkscape:window-x="0"
   inkscape:window-y="0"
   inkscape:window-maximized="1"
   inkscape:current-layer="Ebene_x0020_1"
   inkscape:lockguides="true" />
 <g
   id="Ebene_x0020_1"
   inkscape:label="Ebene 1"
   inkscape:groupmode="layer">
  <metadata
   id="CorelCorpID_0Corel-Layer" />
  
 <g
   id="g367"
   transform="matrix(1.2568782,0,0,1.2568782,-9.9301107,-9.9229481)"
   style="fill:#3c3c43;fill-opacity:1"><path
     d="m 46.29,80.25 c 1.38,-1.97 0.9,-4.69 -1.07,-6.07 L 34.72,66.84 C 32.77,65.63 30.28,66.2 28.95,68.1 v 0 c -1.34,1.91 -1.04,4.45 0.78,5.86 l 10.49,7.35 c 1.97,1.39 4.69,0.91 6.07,-1.06 z"
     id="path353"
     style="fill:#3c3c43;fill-opacity:1" /><path
     d="m 31.29,58.32 -0.01,0.01 c -1.38,1.96 -1,4.58 0.97,5.95 l 13.36,9.35 c 1.97,1.38 4.69,0.9 6.07,-1.07 1.38,-1.97 0.9,-4.69 -1.07,-6.07 L 37.29,57.16 c -1.99,-1.37 -4.62,-0.81 -6,1.16 z"
     id="path355"
     style="fill:#3c3c43;fill-opacity:1" /><path
     d="m 71.38,38.64 c -0.43,-2.38 -2.63,-3.9 -5.02,-3.47 v -0.01 c -2.39,0.42 -4,2.65 -3.57,5.02 l 1.26,12.41 c 0.02,0.13 -0.11,0.2 -0.21,0.13 L 30.96,29.69 c -1.98,-1.38 -4.69,-0.83 -6.07,1.15 l -0.02,0.03 c -1.37,1.95 -0.99,4.66 0.96,6.03 l 21.66,15.16 6.85,4.79 2.03,1.42 c 2.27,1.59 2.82,4.72 1.23,6.99 -1.23,1.75 -3.38,2.48 -5.34,1.99 1.13,1.67 1.18,3.94 -0.04,5.69 -1.23,1.75 -3.38,2.48 -5.34,1.99 1.13,1.67 1.18,3.94 -0.04,5.69 -1.07,1.53 -2.84,2.27 -4.58,2.12 l 6.73,4.71 c 0,0 0.04,0.07 0.04,0.07 6.13,4.29 14.61,2.87 18.91,-3.26 l 5.65,-8.07 c 1.48,-2.12 2.37,-4.74 2.36,-7.33 -0.02,-3.9 -3.71,-25.53 -4.57,-30.22 z"
     id="path357"
     style="fill:#3c3c43;fill-opacity:1" /><path
     d="m 50.98,65.96 c 1.97,1.38 4.69,0.9 6.07,-1.07 1.38,-1.97 0.9,-4.69 -1.07,-6.07 L 39.63,47.37 c -1.98,-1.38 -4.62,-0.82 -6,1.15 v 0 c -1.38,1.97 -0.99,4.59 0.98,5.97 z"
     id="path359"
     style="fill:#3c3c43;fill-opacity:1" /><path
     d="m 51.28,25.85 c 0.91,0 1.65,-0.74 1.65,-1.65 V 11.65 c 0,-0.91 -0.74,-1.65 -1.65,-1.65 -0.91,0 -1.65,0.74 -1.65,1.65 V 24.2 c 0,0.91 0.73,1.65 1.65,1.65 z"
     id="path361"
     style="fill:#3c3c43;fill-opacity:1" /><path
     d="m 40.6,29.91 c 0.46,0.79 1.47,1.06 2.26,0.6 0.79,-0.46 1.06,-1.47 0.6,-2.26 L 37.19,17.38 c -0.46,-0.79 -1.47,-1.06 -2.26,-0.6 -0.79,0.46 -1.06,1.47 -0.6,2.26 z"
     id="path363"
     style="fill:#3c3c43;fill-opacity:1" /><path
     d="m 59.7,30.51 v 0 c 0.79,0.46 1.8,0.19 2.26,-0.6 l 6.27,-10.87 c 0.46,-0.79 0.19,-1.8 -0.6,-2.26 v 0 c -0.79,-0.46 -1.8,-0.19 -2.26,0.6 L 59.1,28.25 c -0.46,0.8 -0.19,1.81 0.6,2.26 z"
     id="path365"
     style="fill:#3c3c43;fill-opacity:1" /></g></g>
</svg>
