<?xml version="1.0" encoding="UTF-8"?><svg id="Calque_1" xmlns="http://www.w3.org/2000/svg" viewBox="0 0 512 170"><defs><style>.cls-1{fill:#00ffcb;stroke-width:0px;}</style></defs><path class="cls-1" d="M512,9.7c0-5.48-4.45-9.93-9.94-9.93H9.94C7.32-.22,4.95.81,3.17,2.47c-.08.08-.18.13-.26.21C1.56,4.03.6,5.76.2,7.7.07,8.35,0,9.02,0,9.7v104.74c0,.34.07.67.1,1H0v44.41C0,165.33,4.45,169.78,9.94,169.78h492.12c5.49,0,9.94-4.44,9.94-9.93v-44.41h-.1c.03-.33.1-.66.1-1V9.7ZM62.9,29.55h16.81c8.17,0,14.82,6.66,14.82,14.84v8.34h-10.2v-8.34c0-2.56-2.08-4.64-4.63-4.64h-16.81v-10.21ZM94.53,63.58v16.83c0,8.18-6.65,14.84-14.82,14.84h-8.33v-10.21h8.33c2.55,0,4.63-2.08,4.63-4.64v-16.83h10.2ZM61.72,52.73c5.32,0,9.66,4.34,9.66,9.67s-4.33,9.67-9.66,9.67-9.66-4.34-9.66-9.67,4.33-9.67,9.66-9.67ZM28.91,44.4c0-8.19,6.65-14.84,14.83-14.84h8.33v10.21h-8.33c-2.55,0-4.63,2.08-4.63,4.64v16.83h-10.2v-16.83ZM28.91,72.08h10.2v8.34c0,2.56,2.08,4.64,4.63,4.64h16.81v10.21h-16.81c-8.18,0-14.83-6.66-14.83-14.84v-8.34ZM506.59,159.85c0,2.49-2.03,4.53-4.53,4.53H9.94c-2.5,0-4.53-2.03-4.53-4.53v-35.48h501.18v35.48ZM506.59,119.33H123.45V5.18h378.73c2.44,0,4.41,1.97,4.41,4.41v109.75Z"/><path class="cls-1" d="M98.31,136.53c3.15,0,5.65,1.57,6.92,4.03l-2.54,1.29c-.76-1.61-2.33-2.65-4.38-2.65-3.07,0-4.96,2.38-4.96,5.07s1.89,5.07,4.96,5.07c2.05,0,3.62-1.04,4.38-2.65l2.54,1.29c-1.27,2.46-3.77,4.03-6.92,4.03-4.62.08-7.88-3.58-7.81-7.74-.06-4.15,3.2-7.82,7.81-7.74Z"/><path class="cls-1" d="M112.96,136.73h1.61l6.37,14.97h-3.01l-1.06-2.54h-6.22l-1.06,2.54h-3.01l6.37-14.97ZM115.84,146.6l-2.07-5-2.07,5h4.15Z"/><path class="cls-1" d="M132.49,151.69l-3.77-6.15-2.12-.02v6.17h-2.8v-14.84h6.1c2.88,0,5.08,1.55,5.08,4.32,0,2.14-1.29,3.63-3.31,4.16l4.02,6.36h-3.22ZM126.6,142.98h3.39c1.36,0,2.14-.68,2.14-1.8s-.78-1.78-2.14-1.78h-3.39v3.58Z"/><path class="cls-1" d="M137.6,139.4v-2.54h11.79v2.54h-4.49v12.3h-2.8v-12.3h-4.51Z"/><path class="cls-1" d="M158.9,136.53c4.59-.09,7.88,3.58,7.81,7.74.06,4.2-3.22,7.82-7.81,7.74-4.62.08-7.88-3.54-7.81-7.74-.06-4.15,3.2-7.82,7.81-7.74ZM158.9,139.2c-3.09,0-4.93,2.38-4.93,5.07s1.84,5.07,4.93,5.07,4.95-2.35,4.95-5.07-1.88-5.07-4.95-5.07Z"/><path class="cls-1" d="M177.28,152.01c-4.62.08-7.88-3.58-7.81-7.74-.06-4.15,3.2-7.82,7.81-7.74,2.31,0,4.32.87,5.74,2.33l-2.1,1.84c-.85-.93-2.12-1.51-3.64-1.51-3.09,0-4.93,2.38-4.93,5.07s1.84,5.07,4.93,5.07c2.22,0,3.87-1.25,4.55-3.12l-2.29-2.78h5.44c.02.32.04.59.04.83.04,4.16-3.2,7.82-7.75,7.74Z"/><path class="cls-1" d="M197.08,151.69l-3.77-6.15-2.12-.02v6.17h-2.8v-14.84h6.1c2.88,0,5.08,1.55,5.08,4.32,0,2.14-1.29,3.63-3.31,4.16l4.02,6.36h-3.22ZM191.2,142.98h3.39c1.36,0,2.14-.68,2.14-1.8s-.78-1.78-2.14-1.78h-3.39v3.58Z"/><path class="cls-1" d="M208.48,136.73h1.61l6.37,14.97h-3.01l-1.06-2.54h-6.22l-1.06,2.54h-3.01l6.37-14.97ZM211.36,146.6l-2.07-5-2.07,5h4.15Z"/><path class="cls-1" d="M225.46,136.85c3.03,0,5.21,1.93,5.21,4.92s-2.16,4.98-5.21,4.98h-3.32v4.94h-2.8v-14.84h6.12ZM224.95,139.4h-2.82v4.81h2.82c1.84,0,2.86-.87,2.86-2.42s-1.01-2.4-2.86-2.4Z"/><path class="cls-1" d="M236.77,136.85v6.04h7.24v-6.04h2.79v14.84h-2.79v-6.19h-7.24v6.19h-2.82v-14.84h2.82Z"/><path class="cls-1" d="M254.09,136.85v14.84h-2.82v-14.84h2.82Z"/><path class="cls-1" d="M268.43,136.85v2.61h-7.09v3.46h6.48v2.57h-6.48v3.6h7.09v2.61h-9.89v-14.84h9.89Z"/><path class="cls-1" d="M275.97,139.4v-2.54h11.79v2.54h-4.49v12.3h-2.8v-12.3h-4.51Z"/><path class="cls-1" d="M293.7,136.85v6.04h7.24v-6.04h2.79v14.84h-2.79v-6.19h-7.24v6.19h-2.82v-14.84h2.82Z"/><path class="cls-1" d="M318.09,136.85v2.61h-7.09v3.46h6.48v2.57h-6.48v3.6h7.09v2.61h-9.89v-14.84h9.89ZM313.35,132.29h3.31l-2.44,3.12h-2.1l1.23-3.12Z"/><path class="cls-1" d="M321.89,136.64h1.61l6.08,6.72,6.1-6.72h1.61v15.05h-2.79v-9.71l-4.91,5.19-4.89-5.19v9.71h-2.8v-15.05Z"/><path class="cls-1" d="M346.56,136.73h1.61l6.37,14.97h-3.01l-1.06-2.54h-6.22l-1.06,2.54h-3.01l6.37-14.97ZM349.44,146.6l-2.07-5-2.07,5h4.15Z"/><path class="cls-1" d="M354.44,139.4v-2.54h11.79v2.54h-4.49v12.3h-2.8v-12.3h-4.51Z"/><path class="cls-1" d="M372.16,136.85v14.84h-2.82v-14.84h2.82Z"/><path class="cls-1" d="M390.77,152.01h-7.2c-4.62.08-7.88-3.54-7.81-7.74-.06-4.2,3.2-7.82,7.81-7.74,4.59-.09,7.88,3.54,7.81,7.74,0,2.01-.68,3.9-1.93,5.28l1.31,2.46ZM388.53,144.27c0-2.71-1.84-5.07-4.95-5.07s-4.93,2.35-4.93,5.07,1.82,5.07,4.93,5.07,4.95-2.35,4.95-5.07Z"/><path class="cls-1" d="M394.85,136.85h2.79v8.93c0,2.14,1.31,3.56,3.45,3.56s3.45-1.42,3.45-3.56v-8.93h2.79v9.12c0,3.37-2.24,6.04-6.25,6.04s-6.25-2.67-6.25-6.04v-9.12Z"/><path class="cls-1" d="M421.51,136.85v2.61h-7.09v3.46h6.48v2.57h-6.48v3.6h7.09v2.61h-9.89v-14.84h9.89Z"/><path class="cls-1" d="M273.61,94.09c7.25,0,13.36-2.55,17.82-7.39v5.99h11.76v-52.86h-11.76v5.96c-4.38-4.78-10.61-7.37-17.82-7.37-14.65,0-25.69,11.9-25.69,27.68s10.8,27.99,25.69,27.99ZM264.1,54.23c2.77-3.18,6.58-4.79,11.35-4.79,9.23,0,15.45,6.74,15.45,16.77s-6.06,16.77-15.45,16.77-15.46-6.74-15.46-16.77c0-4.81,1.38-8.84,4.11-11.98Z"/><path class="cls-1" d="M168.69,92.69v-29.63c0-8.06,4.35-13.08,11.34-13.08s11.34,5.01,11.34,13.08v29.63h11.76v-29.63c0-7.94,4.45-13.08,11.34-13.08s11.44,5.01,11.44,13.08v29.63h11.76v-31.15c0-13.42-8.61-22.79-20.93-22.79-8.1,0-14.13,2.96-17.55,8.58-3.42-5.55-9.16-8.58-16.34-8.58-6.5,0-11.54,2.06-15.02,6.13v-5.05h-10.89v52.86h11.75Z"/><rect class="cls-1" x="418.96" y="39.83" width="11.75" height="52.86"/><path class="cls-1" d="M391.45,67.36c0-10.56,0-15.86,14.5-15.86h.9v-11.81h-.9c-26.29,0-26.29,18-26.29,27.66v25.31h11.79v-25.31Z"/><polygon class="cls-1" points="450.46 92.67 462.24 92.67 462.24 50.72 473.1 50.72 473.1 39.68 462.24 39.68 462.24 28.32 450.46 28.32 450.46 39.68 444.26 39.68 444.26 50.72 450.46 50.72 450.46 92.67"/><path class="cls-1" d="M339.69,94.08c.78.07,1.57.05,2.38.05,14.89,0,25.69-11.76,25.69-27.99,0-.74-.14-1.42-.19-2.14h-22.67v10.17h9.16c-2.3,5.24-6.98,8.48-13.09,8.74-8.92-.27-14.9-6.9-14.9-16.72,0-4.81,1.38-8.84,4.11-11.98,2.58-2.97,6.11-4.51,10.42-4.71,4.58.09,8.27,1.67,10.97,4.76.44.51.8,1.08,1.17,1.64h13.27c-3.63-10.4-12.7-17.45-23.95-17.45-.81,0-1.6-.12-2.38-.05-14.65,0-25.69,11.9-25.69,27.68s10.8,27.99,25.69,27.99Z"/></svg>