<?xml version="1.0" encoding="UTF-8" standalone="no"?>
<!-- Generator: Adobe Illustrator 24.1.2, SVG Export Plug-In . SVG Version: 6.00 Build 0)  -->

<svg
   version="1.1"
   id="Calque_1"
   x="0px"
   y="0px"
   viewBox="0 0 107.5 22"
   style="enable-background:new 0 0 107.5 22;"
   xml:space="preserve"
   sodipodi:docname="magrit-inv.svg"
   inkscape:version="1.1.2 (0a00cf5339, 2022-02-04)"
   xmlns:inkscape="http://www.inkscape.org/namespaces/inkscape"
   xmlns:sodipodi="http://sodipodi.sourceforge.net/DTD/sodipodi-0.dtd"
   xmlns:xlink="http://www.w3.org/1999/xlink"
   xmlns="http://www.w3.org/2000/svg"
   xmlns:svg="http://www.w3.org/2000/svg"><defs
   id="defs31"><linearGradient
     inkscape:collect="always"
     id="linearGradient4623"><stop
       style="stop-color:#000000;stop-opacity:1;"
       offset="0"
       id="stop4619" /><stop
       style="stop-color:#000000;stop-opacity:0;"
       offset="1"
       id="stop4621" /></linearGradient><linearGradient
     inkscape:collect="always"
     id="linearGradient4595"><stop
       style="stop-color:#13389c;stop-opacity:1;"
       offset="0"
       id="stop4591" /><stop
       style="stop-color:#13389c;stop-opacity:0;"
       offset="1"
       id="stop4593" /></linearGradient><linearGradient
     inkscape:collect="always"
     xlink:href="#linearGradient4595"
     id="linearGradient4597"
     x1="-0.52622347"
     y1="10.896439"
     x2="19.833973"
     y2="10.896439"
     gradientUnits="userSpaceOnUse" /><linearGradient
     inkscape:collect="always"
     xlink:href="#linearGradient4595"
     id="linearGradient4599"
     x1="26.1"
     y1="11.05"
     x2="108.16371"
     y2="11.05"
     gradientUnits="userSpaceOnUse" /><linearGradient
     inkscape:collect="always"
     xlink:href="#linearGradient4623"
     id="linearGradient4625"
     x1="-0.52622347"
     y1="10.896439"
     x2="19.833973"
     y2="10.896439"
     gradientUnits="userSpaceOnUse" /><linearGradient
     inkscape:collect="always"
     xlink:href="#linearGradient4623"
     id="linearGradient4627"
     x1="26.1"
     y1="11.05"
     x2="108.16371"
     y2="11.05"
     gradientUnits="userSpaceOnUse" /></defs><sodipodi:namedview
   id="namedview29"
   pagecolor="#ffffff"
   bordercolor="#666666"
   borderopacity="1.0"
   inkscape:pageshadow="2"
   inkscape:pageopacity="0.0"
   inkscape:pagecheckerboard="0"
   showgrid="false"
   inkscape:zoom="12.52093"
   inkscape:cx="53.190936"
   inkscape:cy="10.981612"
   inkscape:window-width="2560"
   inkscape:window-height="1406"
   inkscape:window-x="2560"
   inkscape:window-y="0"
   inkscape:window-maximized="1"
   inkscape:current-layer="Calque_1" />
<style
   type="text/css"
   id="style2">
	.st0{fill:#13389C;}
</style>
<g
   id="g16"
   style="stroke:#13389c;stroke-opacity:1;fill-opacity:1;fill:none">
	<path
   class="st0"
   d="M44.7,0.4v17.1h-5.4V5.6l-3.8,11.9h-3.1L28.5,5.8v11.7h-1.9V0.4h5.7l3.3,10.3L39,0.4H44.7z"
   id="path4"
   style="stroke:#13389c;stroke-opacity:1;fill-opacity:1;fill:none" />
	<path
   class="st0"
   d="M62.3,17c-1.3,0.4-2.5,0.6-3.7,0.6c-1.8,0-2.9-0.5-3.3-1.5c-0.9,1-2.1,1.5-3.7,1.5c-3,0-4.5-1.2-4.5-3.7   c0-1.9,1.4-3.2,4.1-3.9C53.7,9.4,55,8.6,55,7.6c0-1.3-0.7-1.9-2.2-1.9c-1.7,0-2.5,0.6-2.5,1.9c0,0.4,0.1,0.9,0.4,1.5l-2.6-0.4   C48,8.2,48,7.9,48,7.5c0-2,2.1-3,6.2-3c3.9,0,5.9,0.9,5.9,2.8V15c0,0.8,0.3,1.2,0.9,1.2c0.2,0,0.4-0.1,0.8-0.3L62.3,17z M55,9.9   c-0.3,0.3-0.7,0.6-1.1,0.8c-1.1,0.6-1.6,1.5-1.6,2.8c0,1.7,0.4,2.5,1.1,2.5c1.1,0,1.6-0.8,1.6-2.5V9.9z"
   id="path6"
   style="stroke:#13389c;stroke-opacity:1;fill-opacity:1;fill:none" />
	<path
   class="st0"
   d="M72.6,5c2.4,0.9,3.6,2.2,3.6,4c0,1.1-0.6,2.1-1.8,2.9c-1.2,0.8-2.7,1.2-4.4,1.2c-0.7,0-1.6-0.1-2.7-0.2   c-0.7,0.3-1,0.7-1,1c0,0.5,0.4,0.7,1.2,0.7c0.2,0,0.6,0,1.3,0c1.6-0.1,2.8-0.1,3.5-0.1c3.4,0,5.2,1.1,5.2,3.4   c0,2.8-2.9,4.2-8.6,4.2c-4.3,0-6.4-0.8-6.4-2.4c0-0.9,0.9-1.5,2.6-1.8c-1.8-0.4-2.8-1.1-2.8-2.1c0-1.2,1.1-2.3,3.3-3.2   c-1.9-0.7-2.9-1.8-2.9-3.5c0-1.2,0.6-2.3,1.7-3.1c1.2-0.8,2.6-1.3,4.3-1.3c0.6,0,1.4,0.1,2.3,0.2c0-0.3-0.1-0.5-0.1-0.7   c0-1.6,1-2.5,2.9-2.5c1.6,0,2.3,0.6,2.3,1.7c0,0.9-0.5,1.3-1.4,1.3c-0.3,0-0.7-0.1-1.1-0.3c-0.3-0.1-0.5-0.2-0.6-0.2   C72.8,4.1,72.6,4.4,72.6,5z M69.2,18.3c-2.4,0-3.6,0.4-3.6,1.2c0,0.8,1.2,1.2,3.5,1.2c2.7,0,4.1-0.5,4.1-1.4   C73.2,18.7,71.9,18.3,69.2,18.3z M69.4,5.8c-1,0-1.4,1.1-1.4,3.2c0,1.9,0.5,2.9,1.5,2.9c0.9,0,1.4-0.9,1.4-2.6   C70.8,7,70.3,5.8,69.4,5.8z"
   id="path8"
   style="stroke:#13389c;stroke-opacity:1;fill-opacity:1;fill:none" />
	<path
   class="st0"
   d="M89.1,9.5h-3.5c0.1-0.5,0.2-0.9,0.3-1.1c0.1-0.4,0.2-0.7,0.2-1c0-0.5-0.2-0.8-0.7-0.8c-0.3,0-0.6,0.4-1,1.1   C84.2,8.4,84,9.1,84,9.9v7.5h-5.2V4.9h1c1.2,0,2.6-0.1,4.2-0.3v2.1c0.8-1.4,1.9-2.1,3.1-2.1c1.7,0,2.5,0.8,2.5,2.4   c0,0.4-0.1,0.9-0.2,1.5C89.3,8.7,89.2,9,89.1,9.5z"
   id="path10"
   style="stroke:#13389c;stroke-opacity:1;fill-opacity:1;fill:none" />
	<path
   class="st0"
   d="M91.3,17.5V4.9c1.6,0,3.3-0.1,5.2-0.3v12.9H91.3z M93.9,0c1.6,0,2.4,0.5,2.4,1.6s-0.8,1.6-2.4,1.6   s-2.4-0.5-2.4-1.6S92.3,0,93.9,0z"
   id="path12"
   style="stroke:#13389c;stroke-opacity:1;fill-opacity:1;fill:none" />
	<path
   class="st0"
   d="M107.2,4.9v1.4h-2.3v8.9c0,0.6,0.2,0.8,0.6,0.8c0.3,0,0.5-0.2,0.5-0.6l1.5,0.1c-0.4,1.3-1.7,2-3.9,2   c-2.6,0-3.9-1-3.9-2.9V6.3H98V4.9h1.7V2.7c1.8-0.4,3.5-1.1,5.2-1.9v4.1H107.2z"
   id="path14"
   style="stroke:#13389c;stroke-opacity:1;fill-opacity:1;fill:none" />
</g>
<g
   id="g22"
   style="stroke:#13389c;stroke-opacity:1;fill-opacity:1;fill:none">
	<path
   class="st0"
   d="M18.6,22H9.7l0,0h-9c3.2-0.6,5.4-2.6,6.8-4.7c-2.3,0.7-5,0-6.5-2.2s-1.3-4.9,0.2-6.8c0.3-0.3,0.6-0.6,1-0.9   L9.6,0l7.5,7.4C17.4,7.6,17.7,8,18,8.3l0,0c0.1,0.1,0.1,0.2,0.2,0.3c1.8,2.6,1.1,6.1-1.4,7.9c-1.5,1.1-3.4,1.2-5,0.7   C13.2,19.4,15.4,21.4,18.6,22z"
   id="path18"
   style="stroke:#13389c;stroke-opacity:1;fill-opacity:1;fill:none" />
	<path
   class="st0"
   d="M16.9,16.6c2.6-1.8,3.2-5.4,1.4-7.9c-0.1-0.1-0.1-0.2-0.2-0.3l0,0c-0.3-0.4-0.6-0.7-0.9-0.9L9.6,0L2.2,7.5   C1.8,7.7,1.5,8,1.2,8.4C-0.3,10.3-0.5,13,1,15.2c1.4,2.2,4.1,2.9,6.5,2.2c-1.4,2-3.6,4-6.8,4.6h8.9l0,0h8.9   c-3.2-0.6-5.4-2.6-6.8-4.7C13.5,17.9,15.3,17.7,16.9,16.6z"
   id="path20"
   style="stroke:#13389c;stroke-opacity:1;fill-opacity:1;fill:none" />
</g>
<line
   class="st0"
   x1="26.6"
   y1="20.3"
   x2="59.3"
   y2="20.3"
   id="line24" />
<line
   class="st0"
   x1="79.4"
   y1="20.3"
   x2="107.5"
   y2="20.3"
   id="line26" />
</svg>
