<?xml version="1.0" encoding="UTF-8" standalone="no"?>
<!-- Generator: Adobe Illustrator 24.1.2, SVG Export Plug-In . SVG Version: 6.00 Build 0)  -->

<svg
   version="1.1"
   id="Calque_1"
   x="0px"
   y="0px"
   viewBox="0 0 109.18794 24.39996"
   xml:space="preserve"
   sodipodi:docname="magrit.svg"
   inkscape:version="1.1.2 (0a00cf5339, 2022-02-04)"
   width="109.18794"
   height="24.39996"
   xmlns:inkscape="http://www.inkscape.org/namespaces/inkscape"
   xmlns:sodipodi="http://sodipodi.sourceforge.net/DTD/sodipodi-0.dtd"
   xmlns="http://www.w3.org/2000/svg"
   xmlns:svg="http://www.w3.org/2000/svg"><defs
   id="defs31"><marker
     style="overflow:visible"
     id="Arrow1Lstart"
     refX="0"
     refY="0"
     orient="auto"
     inkscape:stockid="Arrow1Lstart"
     inkscape:isstock="true"><path
       transform="matrix(0.8,0,0,0.8,10,0)"
       style="fill:context-stroke;fill-rule:evenodd;stroke:context-stroke;stroke-width:1pt"
       d="M 0,0 5,-5 -12.5,0 5,5 Z"
       id="path4870" /></marker></defs><sodipodi:namedview
   id="namedview29"
   pagecolor="#ffffff"
   bordercolor="#666666"
   borderopacity="1.0"
   inkscape:pageshadow="2"
   inkscape:pageopacity="0.0"
   inkscape:pagecheckerboard="0"
   showgrid="false"
   inkscape:zoom="12.52093"
   inkscape:cx="44.804979"
   inkscape:cy="16.572251"
   inkscape:window-width="2560"
   inkscape:window-height="1378"
   inkscape:window-x="0"
   inkscape:window-y="28"
   inkscape:window-maximized="1"
   inkscape:current-layer="Calque_1"
   fit-margin-top="0.2"
   fit-margin-left="0.2"
   fit-margin-right="0.2"
   fit-margin-bottom="0.2" />
<style
   type="text/css"
   id="style2">
	.st0{fill:#13389C;}
</style>
<g
   id="g16"
   style="fill:#ecff06;fill-opacity:1;stroke:#13389c;stroke-width:0.4;stroke-miterlimit:4;stroke-dasharray:none;stroke-opacity:1"
   transform="translate(1.222463,1.1999591)">
	<path
   class="st0"
   d="M 44.7,0.4 V 17.5 H 39.3 V 5.6 L 35.5,17.5 H 32.4 L 28.5,5.8 V 17.5 H 26.6 V 0.4 h 5.7 L 35.6,10.7 39,0.4 Z"
   id="path4"
   style="fill:#ecff06;fill-opacity:1;stroke:#13389c;stroke-width:0.4;stroke-miterlimit:4;stroke-dasharray:none;stroke-opacity:1" />
	<path
   class="st0"
   d="m 62.3,17 c -1.3,0.4 -2.5,0.6 -3.7,0.6 -1.8,0 -2.9,-0.5 -3.3,-1.5 -0.9,1 -2.1,1.5 -3.7,1.5 -3,0 -4.5,-1.2 -4.5,-3.7 0,-1.9 1.4,-3.2 4.1,-3.9 C 53.7,9.4 55,8.6 55,7.6 55,6.3 54.3,5.7 52.8,5.7 c -1.7,0 -2.5,0.6 -2.5,1.9 0,0.4 0.1,0.9 0.4,1.5 L 48.1,8.7 C 48,8.2 48,7.9 48,7.5 c 0,-2 2.1,-3 6.2,-3 3.9,0 5.9,0.9 5.9,2.8 V 15 c 0,0.8 0.3,1.2 0.9,1.2 0.2,0 0.4,-0.1 0.8,-0.3 z M 55,9.9 c -0.3,0.3 -0.7,0.6 -1.1,0.8 -1.1,0.6 -1.6,1.5 -1.6,2.8 0,1.7 0.4,2.5 1.1,2.5 1.1,0 1.6,-0.8 1.6,-2.5 z"
   id="path6"
   style="fill:#ecff06;fill-opacity:1;stroke:#13389c;stroke-width:0.4;stroke-miterlimit:4;stroke-dasharray:none;stroke-opacity:1" />
	<path
   class="st0"
   d="m 72.6,5 c 2.4,0.9 3.6,2.2 3.6,4 0,1.1 -0.6,2.1 -1.8,2.9 -1.2,0.8 -2.7,1.2 -4.4,1.2 -0.7,0 -1.6,-0.1 -2.7,-0.2 -0.7,0.3 -1,0.7 -1,1 0,0.5 0.4,0.7 1.2,0.7 0.2,0 0.6,0 1.3,0 1.6,-0.1 2.8,-0.1 3.5,-0.1 3.4,0 5.2,1.1 5.2,3.4 0,2.8 -2.9,4.2 -8.6,4.2 -4.3,0 -6.4,-0.8 -6.4,-2.4 0,-0.9 0.9,-1.5 2.6,-1.8 -1.8,-0.4 -2.8,-1.1 -2.8,-2.1 0,-1.2 1.1,-2.3 3.3,-3.2 -1.9,-0.7 -2.9,-1.8 -2.9,-3.5 0,-1.2 0.6,-2.3 1.7,-3.1 1.2,-0.8 2.6,-1.3 4.3,-1.3 0.6,0 1.4,0.1 2.3,0.2 0,-0.3 -0.1,-0.5 -0.1,-0.7 0,-1.6 1,-2.5 2.9,-2.5 1.6,0 2.3,0.6 2.3,1.7 0,0.9 -0.5,1.3 -1.4,1.3 C 74.4,4.7 74,4.6 73.6,4.4 73.3,4.3 73.1,4.2 73,4.2 72.8,4.1 72.6,4.4 72.6,5 Z m -3.4,13.3 c -2.4,0 -3.6,0.4 -3.6,1.2 0,0.8 1.2,1.2 3.5,1.2 2.7,0 4.1,-0.5 4.1,-1.4 0,-0.6 -1.3,-1 -4,-1 z M 69.4,5.8 c -1,0 -1.4,1.1 -1.4,3.2 0,1.9 0.5,2.9 1.5,2.9 0.9,0 1.4,-0.9 1.4,-2.6 C 70.8,7 70.3,5.8 69.4,5.8 Z"
   id="path8"
   style="fill:#ecff06;fill-opacity:1;stroke:#13389c;stroke-width:0.4;stroke-miterlimit:4;stroke-dasharray:none;stroke-opacity:1" />
	<path
   class="st0"
   d="M 89.1,9.5 H 85.6 C 85.7,9 85.8,8.6 85.9,8.4 86,8 86.1,7.7 86.1,7.4 86.1,6.9 85.9,6.6 85.4,6.6 85.1,6.6 84.8,7 84.4,7.7 84.2,8.4 84,9.1 84,9.9 v 7.5 H 78.8 V 4.9 h 1 C 81,4.9 82.4,4.8 84,4.6 v 2.1 c 0.8,-1.4 1.9,-2.1 3.1,-2.1 1.7,0 2.5,0.8 2.5,2.4 0,0.4 -0.1,0.9 -0.2,1.5 -0.1,0.2 -0.2,0.5 -0.3,1 z"
   id="path10"
   style="fill:#ecff06;fill-opacity:1;stroke:#13389c;stroke-width:0.4;stroke-miterlimit:4;stroke-dasharray:none;stroke-opacity:1" />
	<path
   class="st0"
   d="M 91.3,17.5 V 4.9 c 1.6,0 3.3,-0.1 5.2,-0.3 V 17.5 Z M 93.9,0 c 1.6,0 2.4,0.5 2.4,1.6 0,1.1 -0.8,1.6 -2.4,1.6 -1.6,0 -2.4,-0.5 -2.4,-1.6 0,-1.1 0.8,-1.6 2.4,-1.6 z"
   id="path12"
   style="fill:#ecff06;fill-opacity:1;stroke:#13389c;stroke-width:0.4;stroke-miterlimit:4;stroke-dasharray:none;stroke-opacity:1" />
	<path
   class="st0"
   d="m 107.2,4.9 v 1.4 h -2.3 v 8.9 c 0,0.6 0.2,0.8 0.6,0.8 0.3,0 0.5,-0.2 0.5,-0.6 l 1.5,0.1 c -0.4,1.3 -1.7,2 -3.9,2 -2.6,0 -3.9,-1 -3.9,-2.9 V 6.3 H 98 V 4.9 h 1.7 V 2.7 c 1.8,-0.4 3.5,-1.1 5.2,-1.9 v 4.1 z"
   id="path14"
   style="fill:#ecff06;fill-opacity:1;stroke:#13389c;stroke-width:0.4;stroke-miterlimit:4;stroke-dasharray:none;stroke-opacity:1" />
</g>
<g
   id="g22"
   style="stroke:#ecff06;stroke-width:2;stroke-linejoin:round;stroke-miterlimit:4;stroke-dasharray:none;stroke-dashoffset:0;stroke-opacity:1"
   transform="translate(1.222463,1.1999591)">
	<path
   class="st0"
   d="M 18.6,22 H 9.7 v 0 h -9 C 3.9,21.4 6.1,19.4 7.5,17.3 5.2,18 2.5,17.3 1,15.1 -0.5,12.9 -0.3,10.2 1.2,8.3 1.5,8 1.8,7.7 2.2,7.4 L 9.6,0 17.1,7.4 C 17.4,7.6 17.7,8 18,8.3 v 0 c 0.1,0.1 0.1,0.2 0.2,0.3 1.8,2.6 1.1,6.1 -1.4,7.9 -1.5,1.1 -3.4,1.2 -5,0.7 1.4,2.2 3.6,4.2 6.8,4.8 z"
   id="path18"
   style="stroke:#ecff06;stroke-width:2;stroke-linejoin:round;stroke-miterlimit:4;stroke-dasharray:none;stroke-dashoffset:0;stroke-opacity:1" />
	<path
   class="st0"
   d="M 16.9,16.6 C 19.5,14.8 20.1,11.2 18.3,8.7 18.2,8.6 18.2,8.5 18.1,8.4 v 0 C 17.8,8 17.5,7.7 17.2,7.5 L 9.6,0 2.2,7.5 C 1.8,7.7 1.5,8 1.2,8.4 -0.3,10.3 -0.5,13 1,15.2 c 1.4,2.2 4.1,2.9 6.5,2.2 -1.4,2 -3.6,4 -6.8,4.6 h 8.9 v 0 h 8.9 c -3.2,-0.6 -5.4,-2.6 -6.8,-4.7 1.8,0.6 3.6,0.4 5.2,-0.7 z"
   id="path20"
   style="stroke:#ecff06;stroke-width:2;stroke-linejoin:round;stroke-miterlimit:4;stroke-dasharray:none;stroke-dashoffset:0;stroke-opacity:1" />
</g>
<line
   class="st0"
   x1="27.822464"
   y1="21.49996"
   x2="60.522465"
   y2="21.49996"
   id="line24"
   style="stroke:#ecff06;stroke-width:0.8;stroke-linejoin:round;stroke-miterlimit:4;stroke-dasharray:none;stroke-opacity:1" />
<line
   class="st0"
   x1="80.622459"
   y1="21.49996"
   x2="108.72246"
   y2="21.49996"
   id="line26"
   style="stroke:#ecff06;stroke-width:0.8;stroke-linejoin:round;stroke-miterlimit:4;stroke-dasharray:none;stroke-opacity:1" />
</svg>
