<?xml version="1.0" encoding="UTF-8" standalone="no"?>
<!-- Created with Inkscape (http://www.inkscape.org/) -->

<svg
   version="1.1"
   id="svg2"
   width="1789.0814"
   height="350.00009"
   viewBox="0 0 1789.0814 350.00009"
   sodipodi:docname="magrit.svg"
   inkscape:version="1.1.2 (0a00cf5339, 2022-02-04)"
   xmlns:inkscape="http://www.inkscape.org/namespaces/inkscape"
   xmlns:sodipodi="http://sodipodi.sourceforge.net/DTD/sodipodi-0.dtd"
   xmlns:xlink="http://www.w3.org/1999/xlink"
   xmlns="http://www.w3.org/2000/svg"
   xmlns:svg="http://www.w3.org/2000/svg">
  <defs
     id="defs6">
    <clipPath
       clipPathUnits="userSpaceOnUse"
       id="clipPath16031">
      <use
         x="0"
         y="0"
         xlink:href="#g16027"
         id="use16033"
         width="100%"
         height="100%" />
    </clipPath>
  </defs>
  <sodipodi:namedview
     id="namedview4"
     pagecolor="#ffffff"
     bordercolor="#666666"
     borderopacity="1.0"
     inkscape:pageshadow="2"
     inkscape:pageopacity="0.0"
     inkscape:pagecheckerboard="0"
     showgrid="false"
     inkscape:zoom="0.19850478"
     inkscape:cx="-302.25972"
     inkscape:cy="-531.47335"
     inkscape:window-width="1920"
     inkscape:window-height="1018"
     inkscape:window-x="0"
     inkscape:window-y="28"
     inkscape:window-maximized="1"
     inkscape:current-layer="g8"
     fit-margin-top="0"
     fit-margin-left="0"
     fit-margin-right="0"
     fit-margin-bottom="0" />
  <g
     inkscape:groupmode="layer"
     inkscape:label="Image"
     id="g8"
     transform="translate(-1375.5398,-302.3048)">
    <g
       inkscape:label="Clip"
       id="g16027">
      <path
         d="m 1528.7435,651.65278 c -0.9447,-0.14402 -4.8089,-0.73972 -8.5873,-1.3238 -18.2589,-2.82253 -42.2456,-10.8022 -58.0499,-19.31151 -10.8153,-5.8231 -29.6469,-19.43919 -31.8785,-23.04959 -0.8396,-1.35826 3.6946,-6.13621 29.2986,-30.87316 l 14.2509,-13.7686 4.2975,3.9827 c 7.2242,6.69519 14.8958,11.9501 23.5329,16.11961 8.4624,4.0852 17.5825,7.28457 22.8065,8.00062 l 2.9553,0.40505 v -5.93272 c 0,-5.37417 -0.1231,-5.93271 -1.3075,-5.93271 -1.8181,0 -14.5162,-4.47336 -20.4162,-7.19231 -2.6909,-1.24009 -6.802,-3.55143 -9.1359,-5.1363 -5.6525,-3.83852 -14.4811,-11.58554 -14.4811,-12.70696 0,-1.20357 26.8094,-26.89388 27.7614,-26.60254 0.4115,0.12595 0.5074,-0.0118 0.2131,-0.30618 -0.2944,-0.29433 1.5368,-2.62319 4.0694,-5.17521 l 4.6044,-4.64006 -2.9732,-3.29755 c -1.6353,-1.81365 -3.2413,-3.5979 -3.5689,-3.96498 -0.3631,-0.40686 -7.8478,6.56614 -19.1723,17.86152 l -18.5766,18.52895 -2.077,-2.40444 c -8.1449,-9.42918 -15.9206,-25.93937 -19.1699,-40.70365 l -0.8694,-3.95015 h -5.8245 -5.8247 l 0.4274,3.60665 c 1.5308,12.92037 9.3017,30.64713 19.3334,44.10282 2.4462,3.28087 4.6415,6.27919 4.8786,6.66291 0.3745,0.60583 -42.7316,44.5376 -43.7114,44.54875 -0.4767,0.006 -11.2108,-12.94046 -14.8064,-17.85731 -7.6795,-10.50127 -17.5835,-29.89921 -22.2516,-43.58172 -5.1057,-14.9655 -8.9348,-35.35735 -8.9408,-47.61508 l -0.01,-6.35457 h 49.4041 49.404 l 0.4738,5.3241 c 0.7744,8.70462 4.179,22.61852 6.3839,26.09081 0.3697,0.58229 2.081,-0.7111 5.5154,-4.16852 l 4.9793,-5.01275 -1.6757,-6.4797 c -0.9216,-3.56383 -1.7854,-8.48911 -1.9195,-10.94508 l -0.2439,-4.46537 5.5722,-0.34349 c 5.2639,-0.32449 5.7291,-0.48565 8.4103,-2.91312 l 2.8381,-2.56962 -2.9684,-3.09798 -2.9684,-3.09797 h -5.6136 c -4.8894,0 -5.6132,-0.1551 -5.6109,-1.20221 0.01,-3.00133 2.1753,-14.15102 3.3177,-17.05934 l 1.2658,-3.22217 -5.2098,-4.99495 c -2.8653,-2.74721 -5.4322,-4.85749 -5.704,-4.68951 -1.2643,0.78141 -4.7765,14.18601 -5.8215,22.21793 l -1.1569,8.89378 -49.336,0.034 -49.336,0.034 v -5.75507 c 0,-13.50127 6.9007,-41.46788 14.6181,-59.24392 3.8577,-8.88534 12.7386,-24.6871 17.5296,-31.18985 4.8353,-6.56315 13.1815,-16.48756 13.8656,-16.48756 0.5699,0 42.8294,42.31398 43.1414,43.19714 0.1048,0.29666 -1.4889,2.64696 -3.5417,5.22285 -9.901,12.42413 -18.8209,32.0897 -20.1461,44.4156 l -0.3592,3.34182 h 5.8232 5.8233 l 0.8342,-4.29363 c 1.5479,-7.96682 4.2608,-15.93846 7.5894,-22.30029 3.5308,-6.7484 11.3328,-18.05988 12.4565,-18.05988 0.372,0 6.4565,5.81302 13.5212,12.91782 7.0646,7.10478 19.5435,19.46361 27.7307,27.46406 l 14.8861,14.54627 3.4582,-2.2175 3.4583,-2.21751 -6.6656,-6.84392 c -3.6662,-3.76416 -6.8302,-7.01014 -7.0314,-7.2133 -0.2011,-0.20316 -7.6109,-8.09793 -16.466,-17.54392 -8.8552,-9.44599 -16.7283,-17.81937 -17.4959,-18.60749 -0.7674,-0.78813 -2.9264,-3.02617 -4.7974,-4.97344 l -3.402,-3.54048 3.7455,-3.35741 3.7454,-3.35738 30.4396,30.77822 30.4394,30.77823 30.6586,-30.88231 30.6587,-30.88228 3.3251,3.27514 c 1.8289,1.80135 3.2395,3.65439 3.1347,4.11788 -0.1581,0.6994 -17.6931,19.1645 -49.8224,52.46501 l -5.6842,5.89124 1.8963,0.94896 c 1.0429,0.52192 2.4143,1.37579 3.0474,1.89751 0.633,0.52171 1.6455,0.84419 2.2498,0.71661 0.6045,-0.12757 13.4268,-12.52186 28.4942,-27.54286 l 27.3951,-27.31089 2.7753,3.31469 c 7.5815,9.05534 16.0689,27.95261 17.6441,39.28493 l 0.4298,3.09141 5.4748,0.14438 c 3.9875,0.10517 5.5688,-0.10016 5.8203,-0.75577 0.6387,-1.66426 -2.5307,-15.06852 -4.9642,-20.99527 -4.6126,-11.23399 -10.8773,-22.27837 -16.3581,-28.83841 -1.4881,-1.78123 -2.2411,-3.26103 -1.9281,-3.78884 0.2828,-0.47634 10.0586,-10.25941 21.7243,-21.74015 l 21.2102,-20.87409 2.3905,2.7398 c 9.0475,10.36949 13.2103,16.18653 19.9042,27.81464 6.1631,10.70575 8.6019,15.83616 12.41,26.1053 6.6896,18.03972 10.0991,33.18561 11.4829,51.00837 l 0.4133,5.3241 h -50.1783 -50.1783 l -0.01,-2.91966 c -0.01,-7.00322 -3.7585,-24.31323 -6.0149,-27.77398 -0.3565,-0.54673 -2.1993,0.70988 -5.67,3.86647 l -5.1421,4.67641 1.1911,4.7208 c 0.9417,3.73218 3.2744,15.96905 3.2744,17.17647 0,0.13942 -2.4088,0.25349 -5.3527,0.25349 h -5.3529 l -2.9587,3.01459 -2.9585,3.01459 2.552,2.82476 2.552,2.82475 h 5.7594 5.7594 v 2.57618 c -2e-4,3.47869 -1.8306,12.88037 -3.2201,16.54002 l -1.1285,2.97212 4.908,4.90803 c 3.0968,3.09676 5.1415,4.66192 5.5408,4.24118 1.5906,-1.67648 4.8949,-14.41655 5.6358,-21.72962 0.434,-4.28475 0.8982,-8.17688 1.0313,-8.64918 0.1909,-0.67679 10.7262,-0.85873 49.7264,-0.85873 h 49.4843 v 5.84468 c 0,7.74624 -2.3266,24.18612 -4.8117,34.00024 -6.9047,27.2676 -20.2606,52.782 -37.759,72.13307 l -3.4167,3.77839 -6.3369,-6.52632 c -3.4854,-3.58948 -13.4119,-13.66996 -22.0587,-22.40106 l -15.7218,-15.87473 4.7392,-5.90677 c 5.0626,-6.30986 10.6425,-15.8079 14.0468,-23.91046 2.3009,-5.47635 6.0556,-19.52736 6.0556,-22.66182 v -1.98767 h -5.7614 -5.7613 l -0.4849,3.23319 c -1.897,12.65076 -10.4209,31.2403 -19.1501,41.76412 l -1.7095,2.06094 -7.7825,-7.54085 c -4.2804,-4.14745 -12.3743,-12.03057 -17.9862,-17.51802 -5.612,-5.48746 -10.6443,-10.39445 -11.1829,-10.90441 -0.8314,-0.78724 -1.4922,-0.42424 -4.377,2.40443 -1.8688,1.83241 -3.4057,3.69056 -3.4155,4.12922 -0.01,0.43865 8.3506,8.94005 18.5786,18.89199 l 18.5962,18.09443 -4.36,4.12189 c -8.6141,8.14365 -19.9565,14.52466 -33.6636,18.9384 l -8.7866,2.82934 v 5.52044 5.52044 l 3.5351,-0.46895 c 5.0979,-0.67626 17.0996,-4.81727 24.385,-8.41371 6.8346,-3.37388 17.0521,-10.66135 22.7196,-16.20456 l 3.5816,-3.5029 3.9753,3.65395 c 6.7731,6.22567 40.0417,39.92396 40.0417,40.55894 0,1.17114 -9.8102,9.35968 -18.7532,15.65326 -22.8867,16.10636 -56.8579,27.5984 -85.1425,28.80267 l -9.4359,0.40175 -0.023,-44.2401 -0.023,-44.2401 12.4593,-12.02218 12.4593,-12.02218 -5.4592,-5.7701 -5.4592,-5.77011 -9.2206,9.38381 c -5.0713,5.16112 -9.5724,9.38065 -10.0024,9.37676 -0.43,-0.004 -5.0566,-4.184 -10.2811,-9.28917 -5.2247,-5.10516 -9.6646,-9.20129 -9.8665,-9.10251 -0.2019,0.0988 -2.6856,2.61085 -5.5195,5.58236 l -5.1522,5.40272 12.5166,12.11529 12.5168,12.11531 0.043,44.13855 0.043,44.13856 -6.378,-0.0936 c -3.508,-0.0515 -7.151,-0.21138 -8.0955,-0.35539 z m -1.5312,-31.58316 -0.1863,-13.48359 -10.9918,-3.02136 c -12.8883,-3.54272 -25.1405,-9.26533 -34.9941,-16.34477 l -6.1408,-4.41199 -1.7594,1.26114 c -0.9677,0.69362 -2.4532,2.00496 -3.3011,2.91408 l -1.5419,1.65294 4.6333,3.44548 c 2.5483,1.89501 8.3428,6.01992 12.8769,9.16647 4.5341,3.14656 10.1612,7.38768 12.5047,9.42473 5.1333,4.4621 10.7707,11.77965 12.3345,16.01065 0.6284,1.70028 1.4795,3.45669 1.8913,3.90313 0.7488,0.81172 9.3665,2.73037 12.9572,2.88481 l 1.9037,0.0819 z m 54.84,11.88213 c 2.8667,-0.73325 3.2648,-1.10114 4.5872,-4.23787 2.0641,-4.89652 7.3561,-12.58537 10.8803,-15.80829 1.6573,-1.5156 6.9917,-5.53444 11.8542,-8.93076 4.8627,-3.39632 11.3202,-7.98312 14.3501,-10.1929 l 5.5088,-4.01778 -3.1157,-3.11575 -3.1158,-3.11574 -5.7383,4.15231 c -12.1038,8.75836 -23.6915,14.03751 -39.4005,17.95006 l -7.5567,1.88213 -0.3436,13.23374 c -0.1889,7.27855 -0.1889,13.38874 0,13.57818 0.4799,0.48128 8.3123,-0.41101 12.09,-1.37733 z m -90.3864,-9.02674 c -1.2712,-1.31143 -5.8917,-4.92107 -10.2677,-8.02142 -4.3763,-3.10035 -11.1259,-7.90106 -14.9992,-10.66822 -3.8734,-2.76717 -7.3145,-5.03122 -7.6471,-5.03122 -0.3324,0 -1.4271,1.07855 -2.4326,2.39677 l -1.828,2.39679 7.4141,4.88993 c 4.0778,2.68946 9.7281,6.17075 12.5562,7.73619 5.0721,2.80759 17.6013,8.54412 18.8653,8.63756 0.3575,0.0264 -0.39,-1.02493 -1.661,-2.33638 z m 121.5762,-1.01631 c 9.2061,-3.85655 25.8671,-13.29611 30.4792,-17.26839 0.5927,-0.51055 -3.8412,-5.44998 -4.8662,-5.42089 -0.296,0.009 -1.3109,0.63969 -2.2556,1.40284 -0.9445,0.76316 -7.1273,5.07951 -13.7395,9.59188 -12.4422,8.49092 -13.4212,9.24312 -16.7733,12.88715 l -2.003,2.17756 2.003,-0.60587 c 1.1017,-0.33324 4.3216,-1.57716 7.1554,-2.76428 z m -182.4387,-54.91083 c 3.0475,-3.16664 5.4498,-6.06807 5.3384,-6.44764 -0.1117,-0.37957 -1.106,-2.00281 -2.2098,-3.6072 -4.9558,-7.20291 -12.8745,-24.01124 -15.8005,-33.5381 -1.478,-4.81242 -3.749,-15.00074 -4.4318,-19.88205 l -0.4591,-3.28226 -9.3884,0.19085 -9.3884,0.19084 0.1971,3.09141 c 0.4885,7.66672 4.2477,23.19462 8.119,33.53729 4.1967,11.21163 8.4237,19.26368 16.4234,31.28443 4.5533,6.84219 3.3864,6.99686 11.6001,-1.53757 z m 250.1826,-2.30724 c 8.253,-13.02708 14.0527,-26.39053 17.7777,-40.9634 1.9764,-7.73143 3.786,-17.83322 3.786,-21.13396 v -2.31446 l -8.4154,0.0106 c -4.6286,0.006 -8.7849,0.24536 -9.2364,0.53237 -0.4515,0.28702 -1.1562,2.62141 -1.5663,5.18753 -2.8328,17.73268 -9.6389,35.49466 -19.1266,49.91508 l -3.39,5.15237 6.5736,6.67194 c 5.0944,5.1707 6.7775,6.50271 7.4799,5.91978 0.4985,-0.41369 3.2514,-4.45368 6.1175,-8.97776 z m -231.021,-16.63458 3.2344,-3.74639 -2.3141,-3.63867 c -4.9172,-7.73161 -10.4328,-21.8533 -12.4224,-31.80491 -0.6043,-3.02272 -1.2568,-6.19141 -1.4499,-7.04156 -0.3259,-1.43392 -0.7229,-1.54571 -5.4905,-1.54571 h -5.1393 l 0.01,2.23269 c 0.015,3.72802 2.4673,14.23702 4.835,20.72006 3.39,9.28226 13.5834,28.54084 15.1191,28.56486 0.2113,0.004 1.8397,-1.67987 3.6186,-3.74037 z m 205.6881,-2.26471 c 8.2246,-13.91148 12.7585,-26.393 15.6079,-42.9659 l 0.4479,-2.60574 -5.2975,0.20129 -5.2976,0.20132 -2.5853,10.30471 c -2.8176,11.231 -6.6033,21.15598 -10.9366,28.67185 -2.2971,3.98437 -2.6323,5.00881 -1.9408,5.93353 1.4332,1.91705 5.6342,6.27002 6.051,6.27002 0.2185,0 1.9964,-2.70499 3.951,-6.01108 z m -102.0905,-34.88347 c 14.3922,-4.90391 15.5041,-23.89787 1.8135,-30.97757 -2.9169,-1.50836 -8.759,-1.97216 -11.8776,-0.94294 -3.541,1.16863 -8.4816,5.84113 -10.1641,9.61276 -3.0208,6.771 -1.2886,13.83527 4.6808,19.08978 4.6439,4.08775 9.839,5.16301 15.5474,3.21797 z m -140.0789,-56.71969 c 0.2732,-0.91002 1.1443,-5.05514 1.9358,-9.21138 2.6442,-13.88368 9.8265,-31.84951 17.4341,-43.60972 1.7311,-2.67592 3.1473,-5.09435 3.1473,-5.37429 0,-0.27994 -2.6406,-3.12987 -5.8679,-6.33316 l -5.8682,-5.82418 -1.3983,1.71746 c -5.7422,7.05338 -14.9233,23.35086 -19.1487,33.99116 -4.4845,11.29275 -7.6456,22.91916 -8.6283,31.73371 l -0.4728,4.24002 1.9718,0.24502 c 1.0846,0.13475 5.218,0.20787 9.1853,0.16248 6.9938,-0.08 7.2284,-0.13289 7.7099,-1.73712 z m 288.379,-0.28102 c 0,-10.66605 -7.3004,-34.23941 -15.1808,-49.01917 -3.7547,-7.04202 -11.8109,-19.63969 -13.0487,-20.40475 -0.4604,-0.28449 -3.3249,2.06274 -6.9891,5.72696 l -6.209,6.20903 3.8325,5.81925 c 4.7283,7.17952 7.6434,12.94156 11.7166,23.15935 2.827,7.09118 7.3301,23.19632 7.3301,26.21509 0,0.6461 0.3038,1.974 0.6753,2.95089 l 0.6753,1.77618 8.5989,-0.13545 8.5989,-0.13545 z m -265.1748,1.4348 c 0,-0.15568 0.437,-2.55153 0.9711,-5.32412 2.0353,-10.56555 7.0578,-23.64157 13.039,-33.94697 l 2.4229,-4.1746 -3.3419,-3.29163 c -1.838,-1.81038 -3.6314,-3.1127 -3.9851,-2.89404 -1.1437,0.70687 -7.6893,11.84735 -10.4218,17.73807 -3.6618,7.89356 -6.7082,17.21687 -7.947,24.32074 -1.48,8.48639 -1.81,7.85561 4.1105,7.85561 2.8338,0 5.1523,-0.12738 5.1523,-0.28306 z m 234.2546,-0.91916 c -0.011,-2.06151 -3.2197,-15.40988 -4.8306,-20.09421 -3.2816,-9.54157 -14.1804,-29.32733 -15.8097,-28.70099 -0.7588,0.29169 -5.4588,6.08255 -5.4588,6.72575 0,0.31083 1.8666,4.11924 4.1482,8.46314 5.7067,10.8652 8.5687,18.92407 10.9586,30.85837 l 0.7911,3.95016 h 5.1037 c 4.405,0 5.1028,-0.16458 5.0975,-1.20222 z M 1526.0641,411.557 c -12.2421,-12.40697 -22.7219,-23.21994 -23.2884,-24.02883 -0.9489,-1.3546 -0.9001,-1.57215 0.6183,-2.75563 3.6479,-2.84326 12.9351,-6.73615 21.0558,-8.82596 l 2.9197,-0.75136 v -5.84399 -5.844 l -2.5761,0.46496 c -3.3349,0.60188 -13.8686,4.10076 -18.4631,6.13266 -9.3549,4.13714 -19.4169,11.15185 -27.8524,19.41705 l -5.2682,5.16193 -21.723,-21.83843 -21.723,-21.83846 1.5729,-1.69723 c 2.8301,-3.05362 18.6084,-15.4527 24.9303,-19.591 8.3859,-5.48928 26.3665,-14.20951 36.41,-17.65809 15.7669,-5.41377 26.7138,-7.64639 45.5126,-9.28226 l 4.9806,-0.43341 v 45.72586 45.72587 h 5.4958 5.4959 V 348.05074 302.3048 l 6.0111,0.45979 c 23.3632,1.78708 45.4331,8.1589 68.6157,19.80999 12.1744,6.11861 28.4378,17.68618 36.2681,25.7962 l 2.6955,2.79168 -3.443,3.62732 c -4.9743,5.24074 -39.4351,39.69388 -39.7026,39.69388 -0.1241,0 -2.4999,-2.18107 -5.2798,-4.84683 -11.74,-11.25832 -23.7981,-18.53579 -38.3728,-23.15922 -3.5895,-1.13867 -7.531,-2.28338 -8.759,-2.5438 l -2.2327,-0.47349 v 5.72219 5.72218 l 6.0096,1.90125 c 5.882,1.86088 15.7274,6.3629 18.2932,8.36493 1.2367,0.96503 1.1727,1.14816 -1.5007,4.30165 -1.5359,1.81153 -12.1642,12.59719 -23.6187,23.96815 l -20.826,20.67444 z m -44.3516,-42.28919 c 11.5151,-8.57743 24.0111,-14.45914 38.0591,-17.91402 l 7.593,-1.86741 0.01,-13.50252 v -13.50251 l -2.9197,0.32038 c -1.6059,0.1762 -5.0171,0.80102 -7.5807,1.38846 l -4.6611,1.06808 -1.9882,4.25259 c -4.1392,8.85189 -9.8088,14.95201 -21.3219,22.94033 -8.1073,5.62527 -14.2355,10.20498 -17.5531,13.11789 l -2.5451,2.23467 2.9922,3.04876 c 1.6456,1.67682 3.3205,2.92274 3.7217,2.76873 0.4014,-0.15399 3.1906,-2.11305 6.1983,-4.35343 z m 144.4992,1.68852 c 1.5571,-1.41591 2.8311,-2.86264 2.8311,-3.21494 0,-0.82169 -10.7173,-8.84454 -19.579,-14.6566 -11.8324,-7.76048 -18.2187,-14.61865 -22.3682,-24.02117 -1.5593,-3.53287 -1.8128,-3.75551 -5.522,-4.84867 -2.1383,-0.63017 -5.6322,-1.3508 -7.7644,-1.60138 l -3.8766,-0.45562 0.1866,13.63374 0.1867,13.63375 4.1218,0.83524 c 6.2525,1.267 16.8342,4.81345 23.4807,7.86967 5.3341,2.45267 12.5719,6.96581 21.5166,13.41667 1.7003,1.22623 3.2858,2.1742 3.5235,2.10659 0.2377,-0.0676 1.7062,-1.28136 3.2632,-2.69728 z m -161.3575,-17.7659 c 2.0781,-1.74787 7.8765,-6.03023 12.8854,-9.51635 9.3745,-6.52462 16.2871,-12.31735 14.7559,-12.36545 -1.3487,-0.0423 -18.1918,8.5711 -24.8021,12.68357 -3.2619,2.02927 -7.4764,5.07021 -9.3655,6.75766 l -3.435,3.0681 2.0058,2.11527 c 2.2476,2.37051 1.6179,2.58762 7.9555,-2.7428 z m 176.8314,2.2045 1.9082,-1.99172 -3.6689,-2.7625 c -6.3696,-4.79609 -15.7228,-10.36201 -25.1953,-14.99312 -5.0384,-2.46332 -9.3096,-4.32978 -9.4917,-4.1477 -0.7726,0.77265 5.0499,5.47612 15.2708,12.33593 6.0161,4.03769 12.6388,8.72662 14.7168,10.41984 2.0782,1.69323 3.9525,3.09038 4.1652,3.1048 0.2127,0.0144 1.2454,-0.87007 2.2949,-1.96553 z"
         style="fill:#1a1a1a;fill-opacity:1;stroke-width:0.68698"
         id="path16858" />
      <path
         d="m 1785.5284,622.36184 c -3.9241,-2.67064 -9.1662,-7.59672 -11.6491,-10.94687 -4.4412,-5.99203 -4.5243,-8.11706 -5.1089,-130.56441 l -0.5942,-124.47328 4.9105,-9.71141 c 12.3513,-24.42772 52.4079,-26.05767 67.1326,-2.73172 2.9121,4.61268 14.2487,25.80878 25.1927,47.10242 39.1071,76.08934 50.1753,96.21682 51.9398,94.45221 2.3345,-2.33445 23.1557,-42.25738 51.5664,-98.87434 20.251,-40.35652 23.7347,-45.99374 31.9461,-51.6947 7.3097,-5.07502 11.9972,-6.549 22.6598,-7.12515 16.5881,-0.8964 28.1494,4.91017 35.5129,17.83622 l 4.8924,8.58838 -0.5322,125.55196 c -0.524,123.59117 -0.6029,125.64709 -5.047,131.64348 -15.7011,21.18525 -42.1607,21.18728 -57.8717,0.004 -4.2422,-5.71974 -4.5794,-9.5428 -5.5935,-63.37333 l -1.0792,-57.28642 -17.0452,32.08114 c -37.947,71.42044 -47.1384,86.8253 -53.7019,90.00405 -7.5408,3.65213 -12.6284,2.64752 -18.4052,-3.63437 -2.353,-2.55883 -14.7098,-24.07523 -27.4594,-47.81423 -12.7496,-23.73952 -26.6886,-49.47474 -30.9758,-57.18991 l -7.7949,-14.02759 -1.1726,56.11034 c -0.6989,33.44044 -2.1323,58.29012 -3.5478,61.50556 -7.8123,17.74752 -32.523,25.21955 -48.1746,14.56711 z m 315.0305,3.08545 c -12.5045,-5.54206 -19.3504,-15.73845 -19.3504,-28.82162 0,-12.18971 5.8663,-28.32832 53.9893,-148.52957 36.1502,-90.29545 41.1782,-101.8835 47.1529,-108.67365 10.9027,-12.3908 33.4524,-15.6981 49.9334,-7.32368 10.4692,5.31975 16.7017,14.34683 26.447,38.3061 3.138,7.71516 8.779,21.31114 12.5355,30.21327 3.7563,8.90211 9.0393,21.52694 11.7398,28.05515 2.7006,6.52822 13.8674,33.23457 24.8152,59.34748 37.417,89.24776 43.1108,103.59243 43.1295,108.65735 0.052,14.23035 -16.8941,30.53942 -31.7329,30.53942 -21.3407,0 -32.9955,-9.66041 -43.9352,-36.41665 l -7.1696,-17.53559 h -53.5554 -53.5556 l -7.3609,15.12501 c -11.289,23.19638 -15.3939,28.87811 -24.6027,34.05374 -8.3053,4.66785 -21.5685,6.06647 -28.4799,3.00324 z m 127.5962,-152.38292 c -7.2297,-18.2604 -13.1449,-34.26185 -13.1449,-35.55877 0,-7.6945 -4.8564,1.8029 -17.5255,34.27428 l -14.2884,36.62132 28.3159,0.60021 c 15.5737,0.33013 28.6471,-0.15036 29.0519,-1.06806 0.4048,-0.91755 -5.1793,-16.60858 -12.409,-34.86898 z m 324.5962,150.57344 c -3.5609,-1.87382 -8.4444,-5.62039 -10.8523,-8.32572 l -4.3781,-4.91878 -15.8935,5.33054 c -30.4593,10.21569 -73.1501,5.85978 -104.8204,-10.69518 -15.8111,-8.26486 -46.6887,-38.57517 -56.6904,-55.64876 -32.3365,-55.20006 -20.9247,-133.14134 26.3326,-179.85045 15.6793,-15.49763 31.5641,-25.35905 53.3593,-33.12615 13.628,-4.8566 19.4291,-5.65419 41.7258,-5.73681 29.2825,-0.10862 42.5201,2.50011 65.1806,12.84464 28.2957,12.91709 39.4866,24.95519 39.4866,42.47547 0,12.58702 -6.7867,22.82325 -19.4401,29.3208 -11.5239,5.91748 -21.8683,5.1503 -34.0839,-2.52781 -17.3656,-10.91486 -40.4052,-15.72983 -57.9364,-12.10796 -31.3912,6.48526 -52.1731,26.58153 -60.3022,58.31305 -10.8305,42.2757 16.7437,83.2015 62.4151,92.63682 10.686,2.20762 14.8402,2.0471 27.5349,-1.0639 8.2227,-2.01505 15.3356,-4.28709 15.8065,-5.04898 0.4709,-0.76188 1.175,-5.75362 1.5647,-11.09279 l 0.7086,-9.70756 -19.8018,-1.10326 c -22.2552,-1.23994 -29.0528,-4.54091 -35.8181,-17.39391 -5.187,-9.85433 -4.0949,-29.85785 2.0848,-38.18169 7.9258,-10.67606 11.1228,-11.23501 64.4541,-11.26915 55.7041,-0.0356 57.4968,0.39163 61.3168,14.61431 1.2735,4.7422 1.9091,34.56045 1.5567,73.03993 -0.5305,57.9568 -1.0105,65.66013 -4.4162,70.85769 -7.2435,11.05491 -26.253,15.12274 -39.0937,8.36561 z m 86.0829,-0.53091 c -3.6931,-2.25202 -9.0342,-7.3469 -11.8693,-11.32193 l -5.1549,-7.22737 -0.6722,-124.38118 c -0.7357,-136.10013 -0.7934,-135.39314 11.7318,-143.59361 5.438,-3.56042 11.3922,-3.9445 61.1464,-3.9445 61.6671,0 69.1723,1.06741 94.5649,13.44945 30.5849,14.91382 47.4076,37.52519 53.6313,72.0857 7.5487,41.91972 -4.9723,78.62989 -34.6516,101.59404 l -11.5817,8.96126 8.8316,12.01735 c 4.8577,6.60953 13.6402,17.82222 19.5168,24.91711 17.1902,20.7534 20.6139,34.32592 12.1573,48.19614 -11.2476,18.44848 -42.5807,17.2962 -60.8274,-2.23702 -3.2778,-3.50882 -16.8033,-20.37257 -30.0569,-37.47498 l -24.0974,-31.09531 h -15.6542 -15.654 l -0.742,30.75276 c -0.6275,26.01815 -1.4064,31.8781 -5.0581,38.06203 -8.4997,14.39386 -31.2029,19.99489 -45.5604,11.24006 z m 115.0087,-149.30218 c 16.9517,-8.20616 24.9738,-25.02033 20.336,-42.62375 -3.1923,-12.11647 -7.9149,-18.32582 -18.5672,-24.41343 -7.5125,-4.29311 -12.3422,-5.04448 -37.2271,-5.79124 l -28.5948,-0.85811 v 39.09559 39.09558 h 27.3739 c 23.3448,0 28.7435,-0.66301 36.6792,-4.50464 z m 133.9756,148.96191 c -4.9636,-2.6206 -9.7585,-7.57167 -12.4587,-12.86467 -4.2891,-8.40731 -4.3763,-11.54297 -3.8005,-136.82659 l 0.5891,-128.22205 5.3953,-5.84614 c 15.5745,-16.87593 45.3072,-15.22946 57.7014,3.19527 l 4.9819,7.40607 -0.5889,127.85724 c -0.5796,125.8858 -0.6585,127.95119 -5.1034,133.94882 -11.5611,15.59936 -30.1266,20.11077 -46.7162,11.35205 z m 153.7065,0.4496 c -4.1359,-2.20073 -9.6889,-7.78478 -12.34,-12.40902 -4.7975,-8.36851 -4.8202,-8.87725 -4.8557,-109.11766 l -0.036,-100.70994 -25.7616,-0.72027 c -24.983,-0.69848 -25.9568,-0.90743 -32.2177,-6.91149 -12.3229,-11.81765 -13.5693,-40.23814 -2.2912,-52.24312 8.6785,-9.23794 15.5409,-9.86433 100.1953,-9.14496 87.5099,0.74361 88.127,0.83171 96.0879,13.71282 5.1463,8.32684 5.8483,30.51375 1.247,39.41165 -6.7635,13.07909 -10.1481,14.36452 -40.9017,15.5339 l -28.3782,1.07902 -1.0788,101.43021 c -1.2223,114.88033 -0.8082,112.11472 -17.9475,119.8962 -11.4782,5.21127 -22.1689,5.27622 -31.7225,0.1927 z"
         style="fill:#1a1a1a;fill-opacity:1;stroke-width:2.15809"
         id="path16974" />
    </g>
  </g>
</svg>
